<svg
   xmlns="http://www.w3.org/2000/svg" xmlns:xlink="http://www.w3.org/1999/xlink"
   viewBox="0 0 352 352"
   height="352"
   width="352"
   id="svg2"
   version="1.1">
	 <defs
     id="defs6" /><g
     transform="matrix(1.3333333,0,0,-1.3333333,0,352)"
     id="g10"><g
       transform="scale(0.1)"
       id="g12"><path
         id="path14"
         style="fill:transparent;fill-opacity:1;fill-rule:nonzero;stroke:none"
         d="M 2400.68,2640 H 239.316 C 107.145,2640 0,2532.86 0,2400.68 V 239.32 C 0,107.148 107.145,0 239.316,0 H 2400.68 C 2532.85,0 2640,107.148 2640,239.32 v 2161.36 c 0,132.18 -107.15,239.32 -239.32,239.32" /><path
         id="path16"
         style="fill:#ffffff;fill-opacity:1;fill-rule:nonzero;stroke:none"
         d="m 882.285,1809.38 c 87.766,0 161.275,68.79 161.275,158.94 0,90.09 -73.509,158.86 -161.275,158.86 -87.75,0 -161.258,-68.77 -161.258,-158.86 0,-90.15 73.508,-158.94 161.258,-158.94" /><path
         id="path18"
         style="fill:#ffffff;fill-opacity:1;fill-rule:nonzero;stroke:none"
         d="m 547.895,958.391 c -9.477,-40.321 -14.235,-83.86 -14.235,-119.379 0,-139.953 75.895,-232.864 237.168,-232.864 133.762,0 242.192,79.442 320.262,207.692 l -47.67,-191.328 h 265.6 l 151.8,608.838 c 37.94,154.16 111.46,234.17 222.94,234.17 87.75,0 142.3,-54.57 142.3,-144.66 0,-26.11 -2.38,-54.54 -11.86,-85.38 l -78.28,-279.851 c -11.86,-40.32 -16.58,-80.668 -16.58,-118.578 0,-132.86 78.24,-230.039 241.89,-230.039 139.93,0 251.39,90.078 313.06,305.91 l -104.34,40.289 c -52.19,-144.602 -97.25,-170.742 -132.82,-170.742 -35.58,0 -54.56,23.703 -54.56,71.113 0,21.34 4.76,45.027 11.86,73.547 l 75.91,272.651 c 18.96,64.02 26.09,120.79 26.09,172.95 0,203.96 -123.34,310.4 -272.75,310.4 -139.92,0 -282.23,-126.21 -353.36,-259.04 l 52.16,238.42 h -405.54 l -56.93,-210 h 189.74 L 1132.92,984.73 C 1041.16,780.77 872.617,777.461 851.473,782.199 c -34.731,7.832 -56.938,21.02 -56.938,66.153 0,26.039 4.735,63.437 16.598,108.539 l 177.89,705.619 H 538.418 l -56.922,-210 H 668.844 L 547.895,958.391" /></g></g></svg>
